<svg width="11" height="9" viewBox="0 0 11 9" fill="none" xmlns="http://www.w3.org/2000/svg">
<path d="M10.9335 4.0957C9.89789 2.0291 7.84761 0.630859 5.49999 0.630859C3.15237 0.630859 1.10152 2.03008 0.0664479 4.0959C0.0227614 4.18428 0 4.28192 0 4.38096C0 4.47999 0.0227614 4.57764 0.0664479 4.66602C1.10209 6.73262 3.15237 8.13086 5.49999 8.13086C7.84761 8.13086 9.89846 6.73164 10.9335 4.66582C10.9772 4.57744 11 4.47979 11 4.38076C11 4.28173 10.9772 4.18408 10.9335 4.0957ZM5.49999 7.19336C4.95609 7.19336 4.42441 7.02841 3.97217 6.71937C3.51994 6.41033 3.16746 5.97107 2.95932 5.45716C2.75118 4.94324 2.69672 4.37774 2.80283 3.83217C2.90894 3.2866 3.17085 2.78546 3.55545 2.39212C3.94004 1.99879 4.43004 1.73092 4.96349 1.6224C5.49694 1.51388 6.04987 1.56958 6.55237 1.78245C7.05487 1.99532 7.48436 2.3558 7.78653 2.81832C8.08871 3.28083 8.24999 3.8246 8.24999 4.38086C8.25016 4.75025 8.17915 5.11606 8.04102 5.45737C7.90288 5.79868 7.70032 6.1088 7.44492 6.37C7.18953 6.6312 6.8863 6.83836 6.55258 6.97964C6.21885 7.12091 5.86117 7.19354 5.49999 7.19336ZM5.49999 2.50586C5.33635 2.5082 5.17377 2.5331 5.01664 2.57988C5.14616 2.7599 5.20831 2.98142 5.19183 3.20429C5.17534 3.42715 5.08131 3.63659 4.92679 3.79463C4.77226 3.95267 4.56747 4.04884 4.34956 4.0657C4.13165 4.08255 3.91505 4.01899 3.73903 3.88652C3.63881 4.26418 3.6569 4.66447 3.79077 5.03105C3.92463 5.39764 4.16753 5.71207 4.48528 5.93007C4.80303 6.14807 5.17962 6.25868 5.56205 6.24633C5.94448 6.23397 6.3135 6.09927 6.61715 5.86119C6.92081 5.62311 7.14382 5.29364 7.2548 4.91914C7.36578 4.54464 7.35913 4.14398 7.23579 3.77355C7.11246 3.40312 6.87864 3.08157 6.56726 2.85416C6.25588 2.62675 5.88261 2.50494 5.49999 2.50586Z" fill="#2680EB"/>
</svg>
