<svg width="30" height="30" viewBox="0 0 30 30" fill="none" xmlns="http://www.w3.org/2000/svg">
<g opacity="0.7" clip-path="url(#clip0)">
<path d="M15 0C17.9667 0 20.8668 0.871589 23.3336 2.50455C25.8003 4.13751 27.7229 6.4585 28.8582 9.17401C29.9935 11.8895 30.2906 14.8776 29.7118 17.7604C29.133 20.6431 27.7044 23.2911 25.6066 25.3695C23.5088 27.4479 20.8361 28.8632 17.9264 29.4367C15.0166 30.0101 12.0006 29.7158 9.25975 28.591C6.51886 27.4662 4.17618 25.5614 2.52796 23.1175C0.879735 20.6736 0 17.8004 0 14.8611C0 10.9197 1.58035 7.13972 4.3934 4.35272C7.20644 1.56572 11.0218 0 15 0Z" fill="#CDCDCD"/>
<path d="M20.6867 19.1124L10.6383 9.15708C10.33 8.85162 9.83014 8.85162 9.52184 9.15708L9.24271 9.43361C8.93441 9.73907 8.93441 10.2343 9.24271 10.5398L19.2911 20.4951C19.5994 20.8005 20.0993 20.8005 20.4076 20.4951L20.6867 20.2185C20.995 19.9131 20.995 19.4179 20.6867 19.1124Z" fill="#4A4A4A"/>
<path d="M19.2907 9.15714L9.24232 19.1125C8.93402 19.4179 8.93402 19.9131 9.24232 20.2186L9.52145 20.4951C9.82975 20.8006 10.3296 20.8006 10.6379 20.4951L20.6863 10.5398C20.9946 10.2344 20.9946 9.73913 20.6863 9.43367L20.4072 9.15714C20.0989 8.85168 19.599 8.85168 19.2907 9.15714Z" fill="#4A4A4A"/>
</g>
<defs>
<clipPath id="clip0">
<rect width="30" height="29.7222" fill="white"/>
</clipPath>
</defs>
</svg>
