<svg width="39" height="17" viewBox="0 0 39 17" fill="none" xmlns="http://www.w3.org/2000/svg">
<rect x="0.5" y="0.5" width="38" height="16" rx="8" fill="url(#paint0_linear)"/>
<path d="M7.81816 11.5V4.39062H10.2547C11.0587 4.39062 11.6707 4.55176 12.0906 4.87402C12.5105 5.19629 12.7205 5.67643 12.7205 6.31445C12.7205 6.63997 12.6326 6.93294 12.4568 7.19336C12.2811 7.45378 12.0239 7.6556 11.6854 7.79883C12.0695 7.90299 12.3657 8.09993 12.574 8.38965C12.7856 8.67611 12.8914 9.02116 12.8914 9.4248C12.8914 10.0921 12.6766 10.6048 12.2469 10.9629C11.8204 11.321 11.2085 11.5 10.4109 11.5H7.81816ZM9.05352 8.29199V10.5137H10.4256C10.813 10.5137 11.1157 10.4176 11.3338 10.2256C11.5519 10.0335 11.6609 9.7666 11.6609 9.4248C11.6609 8.68587 11.2833 8.30827 10.5281 8.29199H9.05352ZM9.05352 7.38379H10.2645C10.6486 7.38379 10.948 7.29753 11.1629 7.125C11.381 6.94922 11.49 6.70182 11.49 6.38281C11.49 6.03125 11.3891 5.77734 11.1873 5.62109C10.9887 5.46484 10.6779 5.38672 10.2547 5.38672H9.05352V7.38379ZM18.482 8.32617H15.5621V10.5137H18.9752V11.5H14.3268V4.39062H18.941V5.38672H15.5621V7.34961H18.482V8.32617ZM25.4154 5.38672H23.1986V11.5H21.973V5.38672H19.7758V4.39062H25.4154V5.38672ZM29.9465 9.84473H27.1926L26.6164 11.5H25.3322L28.0178 4.39062H29.1262L31.8166 11.5H30.5275L29.9465 9.84473ZM27.5393 8.84863H29.5998L28.5695 5.89941L27.5393 8.84863Z" fill="black"/>
<rect x="0.5" y="0.5" width="38" height="16" rx="8" stroke="#F7C548"/>
<defs>
<linearGradient id="paint0_linear" x1="17.3333" y1="-1.12083e-06" x2="17.3333" y2="17.8226" gradientUnits="userSpaceOnUse">
<stop offset="0.184615" stop-color="#FFC637"/>
<stop offset="1" stop-color="#FFE600"/>
</linearGradient>
</defs>
</svg>
