<svg width="60" height="60" viewBox="0 0 60 60" fill="none" xmlns="http://www.w3.org/2000/svg">
<circle cx="30" cy="30" r="30" fill="white"/>
<g clip-path="url(#clip0)">
<path d="M35.7428 22.5908C41.8082 22.4972 46.7587 27.3158 46.8761 33.4376C46.8934 34.3364 46.8044 35.2113 46.621 36.0504C46.3105 37.4713 46.1259 38.9172 46.1259 40.3723V43.1848C46.1259 43.6157 45.7799 43.965 45.353 43.965H42.5665C41.125 43.965 39.6925 44.1513 38.2849 44.4647C37.4536 44.6498 36.5868 44.7397 35.6964 44.7222C29.6315 44.6038 24.8577 39.607 24.9502 33.4849C25.0404 27.5092 29.8226 22.682 35.7428 22.5908Z" fill="#00D1FF"/>
<path d="M27.2262 12.4912C19.8369 12.3772 13.8058 18.2476 13.6627 25.7056C13.6418 26.8005 13.7502 27.8664 13.9736 28.8887C14.3519 30.6196 14.5767 32.3812 14.5767 34.1538V37.5803C14.5767 38.1052 14.9983 38.5308 15.5184 38.5308H18.913C20.6692 38.5308 22.4143 38.7578 24.1293 39.1396C25.142 39.365 26.198 39.4745 27.2827 39.4533C34.6714 39.3089 40.4872 33.2215 40.3745 25.7631C40.2645 18.4831 34.4385 12.6023 27.2262 12.4912Z" fill="#0056B8"/>
<path d="M20.7312 28.7676C21.8739 28.7676 22.8002 27.8326 22.8002 26.6792C22.8002 25.5258 21.8739 24.5908 20.7312 24.5908C19.5885 24.5908 18.6621 25.5258 18.6621 26.6792C18.6621 27.8326 19.5885 28.7676 20.7312 28.7676Z" fill="white"/>
<path d="M26.5827 28.7676C27.7254 28.7676 28.6518 27.8326 28.6518 26.6792C28.6518 25.5258 27.7254 24.5908 26.5827 24.5908C25.44 24.5908 24.5137 25.5258 24.5137 26.6792C24.5137 27.8326 25.44 28.7676 26.5827 28.7676Z" fill="white"/>
<path d="M32.4343 28.7676C33.577 28.7676 34.5033 27.8326 34.5033 26.6792C34.5033 25.5258 33.577 24.5908 32.4343 24.5908C31.2916 24.5908 30.3652 25.5258 30.3652 26.6792C30.3652 27.8326 31.2916 28.7676 32.4343 28.7676Z" fill="white"/>
</g>
<defs>
<clipPath id="clip0">
<rect width="34.2857" height="32.5714" fill="white" transform="translate(13.1853 12.3212)"/>
</clipPath>
</defs>
</svg>
