<svg width="27" height="26" viewBox="0 0 27 26" fill="none" xmlns="http://www.w3.org/2000/svg">
<g clip-path="url(#clip0)">
<path d="M17.3139 8.38231C21.9693 8.31054 25.7691 12.009 25.8592 16.7078C25.8724 17.3976 25.8041 18.0691 25.6634 18.7132C25.4251 19.8038 25.2834 20.9136 25.2834 22.0304V24.1891C25.2834 24.5199 25.0178 24.788 24.6901 24.788H22.5514C21.445 24.788 20.3455 24.931 19.265 25.1716C18.627 25.3136 17.9617 25.3826 17.2783 25.3692C12.6232 25.2783 8.95907 21.443 9.03008 16.744C9.09935 12.1574 12.7699 8.45238 17.3139 8.38231Z" fill="#00D1FF"/>
<path d="M10.7769 0.630463C5.10533 0.543004 0.476223 5.04873 0.36637 10.7731C0.350286 11.6135 0.433497 12.4316 0.604999 13.2163C0.895317 14.5448 1.06791 15.8969 1.06791 17.2575V19.8874C1.06791 20.2903 1.3915 20.617 1.79072 20.617H4.39622C5.74413 20.617 7.08363 20.7912 8.39992 21.0843C9.17726 21.2573 9.98776 21.3414 10.8203 21.3251C16.4914 21.2142 20.9553 16.5419 20.8689 10.8172C20.7844 5.22948 16.3127 0.715762 10.7769 0.630463Z" fill="#0056B8"/>
<path d="M5.79176 13.1234C6.66884 13.1234 7.37985 12.4057 7.37985 11.5204C7.37985 10.6351 6.66884 9.91742 5.79176 9.91742C4.91468 9.91742 4.20367 10.6351 4.20367 11.5204C4.20367 12.4057 4.91468 13.1234 5.79176 13.1234Z" fill="white"/>
<path d="M10.2831 13.1234C11.1601 13.1234 11.8711 12.4057 11.8711 11.5204C11.8711 10.6351 11.1601 9.91742 10.2831 9.91742C9.40599 9.91742 8.69498 10.6351 8.69498 11.5204C8.69498 12.4057 9.40599 13.1234 10.2831 13.1234Z" fill="white"/>
<path d="M14.7744 13.1234C15.6515 13.1234 16.3625 12.4057 16.3625 11.5204C16.3625 10.6351 15.6515 9.91742 14.7744 9.91742C13.8974 9.91742 13.1863 10.6351 13.1863 11.5204C13.1863 12.4057 13.8974 13.1234 14.7744 13.1234Z" fill="white"/>
</g>
<defs>
<clipPath id="clip0">
<rect width="26.3158" height="25" fill="white" transform="translate(0 0.5)"/>
</clipPath>
</defs>
</svg>
