<svg width="13" height="13" viewBox="0 0 13 13" fill="none" xmlns="http://www.w3.org/2000/svg">
<path fill-rule="evenodd" clip-rule="evenodd" d="M1.29157 1.17511C1.70506 0.761616 2.37547 0.761616 2.78897 1.17511L6.98145 5.36759L11.1739 1.17511C11.5874 0.761616 12.2578 0.761616 12.6713 1.17511C13.0848 1.58861 13.0848 2.25902 12.6713 2.67252L8.47885 6.86499L12.6713 11.0575C13.0848 11.471 13.0848 12.1414 12.6713 12.5549C12.2578 12.9684 11.5874 12.9684 11.1739 12.5549L6.98145 8.36239L2.78897 12.5549C2.37547 12.9684 1.70506 12.9684 1.29157 12.5549C0.878071 12.1414 0.878071 11.471 1.29157 11.0575L5.48404 6.86499L1.29157 2.67252C0.878071 2.25902 0.878071 1.58861 1.29157 1.17511Z" fill="#51595D"/>
</svg>
