<svg width="21" height="20" fill="none" xmlns="http://www.w3.org/2000/svg">
  <path fill-rule="evenodd" clip-rule="evenodd" d="M20.496 10.226c.001-.685-.06-1.37-.185-2.045h-9.609v3.867h5.491a4.55 4.55 0 01-.702 1.713 4.65 4.65 0 01-1.333 1.304v2.51h3.294a9.74 9.74 0 002.318-3.358 9.574 9.574 0 00.724-3.99h.002z" fill="#4285F4"/>
  <path fill-rule="evenodd" clip-rule="evenodd" d="M10.702 19.997a9.86 9.86 0 006.75-2.422l-3.297-2.509a6.275 6.275 0 01-5.368.608 6.173 6.173 0 01-2.34-1.458 6.013 6.013 0 01-1.45-2.318H1.584v2.59a10.075 10.075 0 003.762 4.021 10.355 10.355 0 005.356 1.487z" fill="#34A853"/>
  <path fill-rule="evenodd" clip-rule="evenodd" d="M4.994 11.898a5.806 5.806 0 010-3.799V5.51h-3.41A9.85 9.85 0 00.5 9.998a9.85 9.85 0 001.085 4.49l3.41-2.59z" fill="#FBBC05"/>
  <path fill-rule="evenodd" clip-rule="evenodd" d="M10.702 3.977a5.575 5.575 0 013.9 1.495l2.93-2.867A9.92 9.92 0 0010.702 0C8.81 0 6.956.515 5.346 1.487a10.074 10.074 0 00-3.762 4.021l3.413 2.587a5.966 5.966 0 012.179-2.96 6.163 6.163 0 013.53-1.161l-.004.003z" fill="#EA4335"/>
</svg>