<svg width="16" height="16" viewBox="0 0 16 16" fill="none" xmlns="http://www.w3.org/2000/svg">
<path d="M12.3802 2.23999H4.86017V14.08H12.3802V2.23999Z" fill="white"/>
<path d="M8 0C6.41775 0 4.87103 0.469192 3.55544 1.34824C2.23985 2.22729 1.21447 3.47672 0.608967 4.93853C0.00346627 6.40034 -0.15496 8.00887 0.153721 9.56072C0.462403 11.1126 1.22433 12.538 2.34315 13.6568C3.46197 14.7757 4.88743 15.5376 6.43928 15.8463C7.99113 16.155 9.59966 15.9965 11.0615 15.391C12.5233 14.7855 13.7727 13.7602 14.6518 12.4446C15.5308 11.129 16 9.58225 16 8C16 5.87827 15.1571 3.84344 13.6569 2.34315C12.1566 0.842854 10.1217 0 8 0V0ZM9.66496 12.3984C9.25323 12.561 8.92475 12.6847 8.67952 12.7696C8.40375 12.8597 8.11485 12.9029 7.8248 12.8976C7.32635 12.8976 6.93872 12.7759 6.66192 12.5326C6.52837 12.4189 6.42191 12.2767 6.35033 12.1166C6.27874 11.9564 6.24384 11.7823 6.24816 11.6069C6.24838 11.4576 6.25854 11.3085 6.27856 11.1606C6.29952 11.009 6.3328 10.8382 6.37808 10.6466L6.89344 8.82608C6.93888 8.65136 6.97808 8.48544 7.00928 8.33104C7.03867 8.19002 7.0541 8.04644 7.05536 7.9024C7.06451 7.81596 7.0565 7.72857 7.03179 7.64524C7.00708 7.56191 6.96615 7.48427 6.91136 7.4168C6.81456 7.32544 6.63232 7.28064 6.3608 7.28064C6.222 7.28117 6.08399 7.3017 5.95104 7.3416C5.81216 7.38432 5.69168 7.42288 5.5928 7.4608L5.72896 6.9008C6.06624 6.7633 6.38907 6.6457 6.69744 6.548C6.97939 6.45354 7.27435 6.4036 7.57168 6.4C8.06672 6.4 8.44864 6.52048 8.7176 6.75888C8.84901 6.87496 8.9532 7.0186 9.02276 7.17956C9.09231 7.34051 9.12551 7.51482 9.12 7.69008C9.12 7.76933 9.11072 7.90864 9.09216 8.108C9.0763 8.29407 9.04183 8.47808 8.98928 8.65728L8.47728 10.4723C8.43536 10.6179 8.39728 10.7845 8.36416 10.9707C8.33625 11.1105 8.31971 11.2523 8.31472 11.3947C8.30359 11.4837 8.31226 11.5741 8.34011 11.6594C8.36796 11.7447 8.41431 11.8227 8.47584 11.888C8.64329 11.9914 8.83986 12.0376 9.03584 12.0194C9.17946 12.0163 9.32204 11.9942 9.45984 11.9536C9.57681 11.9238 9.69137 11.8853 9.80256 11.8384L9.66496 12.3984ZM9.57424 5.03136C9.34103 5.25136 9.03078 5.37104 8.71024 5.36464C8.38895 5.37043 8.07803 5.25089 7.84336 5.03136C7.72872 4.93048 7.63715 4.8061 7.57486 4.66668C7.51258 4.52726 7.48104 4.37606 7.4824 4.22336C7.48147 4.07045 7.51318 3.9191 7.57543 3.77942C7.63768 3.63975 7.72903 3.51498 7.84336 3.41344C8.07709 3.19211 8.3884 3.07145 8.71024 3.07744C9.03135 3.07071 9.34204 3.19154 9.57424 3.41344C9.68727 3.51572 9.7776 3.64055 9.83943 3.77989C9.90125 3.91922 9.93319 4.06996 9.93319 4.2224C9.93319 4.37483 9.90125 4.52558 9.83943 4.66491C9.7776 4.80424 9.68727 4.92908 9.57424 5.03136Z" fill="#0075DB"/>
</svg>
