<svg width="100" height="101" viewBox="0 0 100 101" fill="none" xmlns="http://www.w3.org/2000/svg">
<circle cx="50" cy="50.8889" r="50" fill="#E7F9FF"/>
<path d="M42.4726 76.8632L43.8812 78.6566C43.8812 78.6566 50.8516 67.4968 58.9401 66.3496C59.1687 66.4571 59.4198 66.5086 59.6723 66.4998C59.9248 66.4909 60.1716 66.422 60.3922 66.2988L63.0061 64.7813C63.2777 64.6139 63.4923 64.3683 63.6219 64.0768C63.7514 63.7852 63.7899 63.4614 63.7322 63.1476C63.7322 63.1476 67.6312 56.2281 75.9448 55.1608L78.9798 54.5872L58.1196 35.4768L25.6422 48.6842L42.4726 76.8632Z" fill="#0071EB"/>
<path d="M39.0088 75.3678L41.4702 78.6569C41.4702 78.6569 47.1409 65.8707 61.2486 64.9703L47.366 50.623C47.366 50.623 37.3461 71.4252 39.0088 75.3678Z" fill="#78DEFF"/>
<path d="M20 52.3946C20 52.3946 25.3802 35.0341 43.2345 41.38L61.2775 64.9703C61.2775 64.9703 42.7698 61.6158 38.4206 76.8634L20 52.3946Z" fill="white"/>
<path d="M61.2479 64.9706C61.2479 64.9706 66.8241 51.3348 79.0005 53.0121L61.2479 32.377L43.822 42.1935L61.2479 64.9706Z" fill="#78DEFF"/>
<path d="M43.1976 41.4092C43.1976 41.4092 41.1718 31.0989 49.1369 26.6044L54.3574 23.8889L72.6182 44.3352C72.6182 44.3352 60.0063 51.2257 61.2406 64.9994L43.1976 41.4092Z" fill="white"/>
<path d="M61.2492 64.9701C60.9791 64.699 60.7359 64.4023 60.5231 64.0843C60.0148 63.4453 59.3614 62.6321 58.5627 61.5866C56.8927 59.4083 54.6491 56.504 52.1732 53.3093L45.7619 45.0393L43.8088 42.5416C43.5542 42.2474 43.3259 41.9316 43.1263 41.5977C43.4105 41.8633 43.6773 42.1471 43.925 42.4472C44.4187 43.0063 45.1157 43.8412 45.9725 44.8723C47.6788 46.9343 49.9805 49.8386 52.4709 53.0769C54.9613 56.3152 57.1904 59.2704 58.7805 61.4268L60.6393 63.9971C60.8687 64.3043 61.0727 64.6297 61.2492 64.9701Z" fill="#0071EB"/>
<path d="M54.7563 29.9009C54.0399 30.1818 53.3415 30.5067 52.6652 30.8738C51.0887 31.8517 49.7196 33.1296 48.6355 34.6349C47.5167 36.1184 46.7091 37.8125 46.2612 39.6158C45.949 41.0026 45.9925 41.9029 45.9127 41.9029C45.8647 41.696 45.8452 41.4835 45.8546 41.2712C45.839 40.6964 45.8877 40.1217 45.9998 39.5577C46.3821 37.6891 47.1785 35.93 48.3305 34.4098C49.4391 32.8612 50.8742 31.5748 52.5345 30.6415C53.0394 30.3634 53.5756 30.1465 54.1319 29.9953C54.334 29.9325 54.5446 29.9007 54.7563 29.9009Z" fill="#0071EB"/>
<path d="M63.7535 38.5266C63.7535 38.5992 62.9331 38.9695 61.7278 39.8408C61.0284 40.3491 60.3749 40.9176 59.7746 41.5398C59.0426 42.3084 58.3884 43.1475 57.8215 44.0448C57.2711 44.9495 56.8091 45.905 56.4419 46.8983C56.1529 47.7131 55.9343 48.5511 55.7885 49.4032C55.5416 50.8554 55.5779 51.7993 55.5053 51.7993C55.4513 51.5858 55.4268 51.366 55.4327 51.1458C55.4185 50.8919 55.4185 50.6374 55.4327 50.3835C55.4368 50.0432 55.4635 49.7036 55.5125 49.3669C55.6255 48.4878 55.8249 47.622 56.1079 46.7821C56.4697 45.7691 56.9344 44.7959 57.4947 43.8778C58.0757 42.9616 58.7523 42.1097 59.5132 41.3365C60.1407 40.7105 60.829 40.1486 61.568 39.6593C61.849 39.4675 62.1398 39.2905 62.4393 39.1293C62.6726 38.9978 62.9153 38.8837 63.1654 38.788C63.3478 38.6729 63.5459 38.5848 63.7535 38.5266Z" fill="#0071EB"/>
<path d="M66.6664 40.9877C66.6664 41.0603 65.7661 41.4669 64.4882 42.4398C63.7328 43.0069 63.0238 43.6333 62.368 44.3131C61.5732 45.1532 60.845 46.0539 60.1898 47.0069C59.5559 47.9715 59.0022 48.9866 58.5343 50.0419C58.1614 50.9085 57.8697 51.8078 57.663 52.7283C57.3145 54.2967 57.3654 55.3132 57.2927 55.3132C57.232 55.0762 57.21 54.8311 57.2274 54.5871C57.207 54.3091 57.207 54.0301 57.2274 53.7521C57.2483 53.3835 57.2968 53.017 57.3726 52.6557C57.545 51.7083 57.8151 50.7812 58.1786 49.8894C58.6387 48.8021 59.1977 47.7595 59.8485 46.7745C60.5103 45.8011 61.2562 44.8876 62.0776 44.0445C62.7486 43.3675 63.4775 42.7504 64.2558 42.2002C64.557 41.9871 64.8696 41.7907 65.1925 41.6121C65.4257 41.4678 65.6682 41.3393 65.9185 41.2273C66.1558 41.1139 66.4074 41.0333 66.6664 40.9877Z" fill="#0071EB"/>
<path d="M68.4885 43.326C68.4885 43.3914 67.5882 43.798 66.3103 44.7782C65.5652 45.3626 64.8706 46.0087 64.2337 46.7096C63.4641 47.5779 62.7672 48.508 62.1499 49.4904C61.5442 50.4798 61.0197 51.5167 60.5816 52.5908C60.2353 53.4717 59.9633 54.3801 59.7684 55.3063C59.4416 56.8892 59.4925 57.9057 59.4126 57.9057C59.3628 57.667 59.3433 57.4231 59.3545 57.1796C59.3302 56.9018 59.3302 56.6224 59.3545 56.3446C59.3704 55.974 59.414 55.6051 59.4852 55.241C59.6375 54.2881 59.8806 53.3521 60.2113 52.4456C60.6424 51.345 61.1671 50.2835 61.7796 49.2726C62.4201 48.2727 63.1491 47.3323 63.9578 46.4627C64.6184 45.7552 65.3481 45.1155 66.1361 44.5531C66.4303 44.327 66.7409 44.1232 67.0654 43.9432C67.297 43.7941 67.5398 43.663 67.7915 43.5511C68.0099 43.4383 68.2454 43.3623 68.4885 43.326Z" fill="#0071EB"/>
<path d="M53.4209 61.1585C53.4209 61.2238 52.4116 60.8753 50.7489 60.7301C48.586 60.5499 46.4109 60.8755 44.3957 61.6813C42.3925 62.5176 40.6141 63.8135 39.2043 65.4641C38.1224 66.7348 37.6577 67.6424 37.5924 67.6424C37.6543 67.4026 37.7548 67.1745 37.8901 66.9671C38.2068 66.3783 38.5762 65.8194 38.9937 65.2972C40.3748 63.5445 42.1858 62.1788 44.2506 61.3327C46.3155 60.4867 48.5641 60.1891 50.7779 60.4687C51.4424 60.5483 52.0984 60.6868 52.7383 60.8826C52.9784 60.9398 53.2085 61.0328 53.4209 61.1585Z" fill="#0071EB"/>
<path d="M51.034 58.1813C51.034 58.2467 50.0248 57.8982 48.3621 57.7529C46.1977 57.5542 44.0174 57.8808 42.0063 58.705C39.9952 59.5292 38.2127 60.8266 36.8102 62.487C35.7283 63.7576 35.2637 64.7015 35.2056 64.6652C35.2675 64.4254 35.368 64.1974 35.5033 63.9899C35.82 63.4011 36.1894 62.8422 36.6069 62.32C37.988 60.5673 39.799 59.2016 41.8638 58.3556C43.9287 57.5095 46.1773 57.2119 48.3911 57.4916C49.0556 57.5711 49.7116 57.7096 50.3515 57.9054C50.5916 57.9627 50.8217 58.0557 51.034 58.1813Z" fill="#0071EB"/>
<path d="M48.6449 55.1973C48.6449 55.2699 47.6357 54.9213 45.973 54.7761C43.8086 54.5774 41.6283 54.904 39.6172 55.7282C37.606 56.5524 35.8235 57.8497 34.4211 59.5102C33.3392 60.7808 32.8745 61.6884 32.8164 61.6884C32.8758 61.449 32.9739 61.2209 33.1069 61.0131C33.4263 60.422 33.7981 59.8606 34.2178 59.3359C35.6006 57.5856 37.4121 56.2221 39.4766 55.3775C41.5412 54.5328 43.7889 54.2357 46.002 54.5147C46.6664 54.5943 47.3225 54.7328 47.9624 54.9286C48.2013 54.9858 48.4311 55.0762 48.6449 55.1973Z" fill="#0071EB"/>
<path d="M46.2539 52.22C46.2539 52.2926 45.2374 51.9441 43.5819 51.7989C41.4174 51.5984 39.2365 51.9241 37.225 52.7484C35.2136 53.5727 33.4313 54.8711 32.03 56.5329C30.9482 57.8036 30.4835 58.7112 30.4181 58.7112C30.4894 58.4771 30.5894 58.2527 30.7158 58.0432C31.0326 57.4504 31.4045 56.8889 31.8267 56.3659C33.2089 54.6168 35.0192 53.254 37.0823 52.4094C39.1455 51.5648 41.3917 51.267 43.6037 51.5448C44.2711 51.6209 44.9298 51.7595 45.5714 51.9587C45.8099 52.0136 46.0396 52.1016 46.2539 52.22Z" fill="#0071EB"/>
<path d="M43.8575 49.272C43.8575 49.3446 42.8482 48.9961 41.1855 48.8509C39.0222 48.6515 36.8427 48.9778 34.8326 49.8021C32.8226 50.6263 31.0414 51.9241 29.6409 53.5849C28.559 54.8482 28.0943 55.7631 28.029 55.7631C28.0961 55.5275 28.1963 55.3025 28.3267 55.0951C28.6431 54.5038 29.0125 53.9424 29.4303 53.4179C30.8094 51.6606 32.6187 50.2888 34.683 49.4353C36.7474 48.5819 38.9971 48.2755 41.2146 48.5459C41.8793 48.6272 42.5354 48.7682 43.175 48.967C43.418 49.0295 43.6488 49.1326 43.8575 49.272Z" fill="#0071EB"/>
<path d="M41.4698 46.2667C41.4698 46.332 40.4605 45.9907 38.7978 45.8455C36.6298 45.6414 34.4445 45.9653 32.429 46.7898C30.4135 47.6142 28.6276 48.9145 27.2241 50.5796C26.1423 51.8429 25.6776 52.7578 25.6122 52.7578C25.6756 52.5185 25.776 52.2907 25.9099 52.0825C26.2285 51.4948 26.5977 50.936 27.0136 50.4126C28.3979 48.6517 30.2156 47.2804 32.2889 46.4327C34.3621 45.5851 36.6199 45.2902 38.8414 45.5769C39.5061 45.6582 40.1622 45.7992 40.8018 45.998C41.0369 46.0526 41.2623 46.1433 41.4698 46.2667Z" fill="#0071EB"/>
<path d="M48.1072 42.6143L53.0881 48.147C53.0881 48.147 54.6419 40.4942 61.4162 37.5899L56.1522 31.9773C53.9798 32.8647 52.0864 34.3207 50.6708 36.1924C49.2552 38.0641 48.3697 40.2824 48.1072 42.6143Z" fill="#78DEFF"/>
</svg>
