<svg width="23" height="21" viewBox="0 0 23 21" fill="none" xmlns="http://www.w3.org/2000/svg">
<path d="M22.8815 0.0829731C22.8318 0.0404084 22.7707 0.012826 22.7056 0.00350797C22.6404 -0.00581004 22.5739 0.00352816 22.514 0.0304118L0.196546 10.2635C0.137744 10.2909 0.0880577 10.3343 0.0532642 10.3885C0.0184707 10.4427 0 10.5056 0 10.5698C0 10.6339 0.0184707 10.6968 0.0532642 10.751C0.0880577 10.8052 0.137744 10.8486 0.196546 10.8761L6.50365 13.9319C6.56037 13.9593 6.62366 13.9707 6.68656 13.9649C6.74945 13.9592 6.80952 13.9365 6.86017 13.8992L13 9.36812L8.17966 14.2617C8.14572 14.2963 8.11964 14.3376 8.10317 14.383C8.08669 14.4283 8.08019 14.4765 8.0841 14.5245L8.56375 20.6868C8.5689 20.7536 8.594 20.8173 8.63585 20.87C8.67771 20.9228 8.73445 20.9621 8.79893 20.983C8.86341 21.0039 8.93273 21.0056 8.99815 20.9877C9.06357 20.9698 9.12216 20.9332 9.16652 20.8826L12.5186 17.0529L16.6626 19.0049C16.7071 19.0258 16.7556 19.037 16.8048 19.0379C16.854 19.0387 16.9029 19.029 16.948 19.0096C16.9932 18.9902 17.0335 18.9614 17.0664 18.9253C17.0993 18.8891 17.1239 18.8464 17.1386 18.8001L22.9826 0.445461C23.0039 0.381947 23.0057 0.313634 22.9877 0.249128C22.9697 0.184623 22.9328 0.126811 22.8815 0.0829731Z" fill="#51595D"/>
</svg>
