<?xml version="1.0" encoding="utf-8"?>
<!-- Generator: Adobe Illustrator 15.0.0, SVG Export Plug-In . SVG Version: 6.00 Build 0)  -->
<!DOCTYPE svg PUBLIC "-//W3C//DTD SVG 1.1//EN" "http://www.w3.org/Graphics/SVG/1.1/DTD/svg11.dtd">
<svg version="1.1" id="Layer_1" xmlns="http://www.w3.org/2000/svg" xmlns:xlink="http://www.w3.org/1999/xlink" x="0px" y="0px"
	 width="1792px" height="1792px" viewBox="0 0 1792 1792" enable-background="new 0 0 1792 1792" xml:space="preserve">
<g>
	<path fill="#EA4335" d="M896.5,430.698c113.214,0,214.44,39.005,294.356,115.089l219.021-218.98
		c-132.944-123.7-306.594-199.79-513.377-199.79c-299.849,0-559.076,171.989-685.36,422.601l255.146,197.874
		C526.638,565.602,696.376,430.698,896.5,430.698z"/>
	<path fill="#4285F4" d="M1631.063,911.779c0-50.158-4.83-98.772-12.157-145.434H896.5v288.365h413.646
		c-18.563,94.567-72.259,175.146-152.753,229.506l247.07,191.798C1548.647,1342.406,1631.063,1144.783,1631.063,911.779z"/>
	<path fill="#FBBC05" d="M465.953,1040.891c-15.4-46.282-24.309-95.563-24.309-146.682c0-51.151,8.66-100.348,24.309-146.717
		L210.806,549.619c-52.03,103.556-81.497,220.556-81.497,344.59c0,124.04,29.467,241.084,81.832,344.641L465.953,1040.891z"/>
	<path fill="#34A853" d="M896.5,1661.401c207.118,0,381.346-68.093,507.964-185.717l-247.07-191.798
		c-68.762,46.368-157.337,73.506-260.894,73.506c-200.124,0-369.862-134.859-430.547-316.835l-255.147,197.959
		C337.424,1489.418,596.651,1661.401,896.5,1661.401z"/>
	<path fill="none" d="M129.309,127.018h1534.383v1534.383H129.309V127.018z"/>
</g>
</svg>
