<svg xmlns="http://www.w3.org/2000/svg" viewBox="0 0 123.3 19.45"><defs><style>.cls-1{fill:#fff;}</style></defs><title>PoweredbyPaperCut</title><g id="Layer_2" data-name="Layer 2"><g id="Layer_1-2" data-name="Layer 1"><path class="cls-1" d="M109.49,10.93v-1l.21,0h.2a1.62,1.62,0,0,1,.9.23.92.92,0,0,1,.35.83v5.62H110q-.29,0-.36-.16a1.09,1.09,0,0,1-.08-.46v-.13a3.19,3.19,0,0,1-.31.3,2.66,2.66,0,0,1-.42.29,2.43,2.43,0,0,1-.55.22,2.68,2.68,0,0,1-.7.08,2.37,2.37,0,0,1-1.89-.74,2.91,2.91,0,0,1-.65-2V9.9l.21,0h.2a1.62,1.62,0,0,1,.9.23.92.92,0,0,1,.35.83v3a1.32,1.32,0,0,0,.34,1,1.21,1.21,0,0,0,.89.34,1.52,1.52,0,0,0,.63-.13,1.48,1.48,0,0,0,.51-.37,1.78,1.78,0,0,0,.33-.56,1.92,1.92,0,0,0,.12-.68Zm-6.25,5.21a5.42,5.42,0,0,1-1.08.46,4.28,4.28,0,0,1-1.24.18A4.8,4.8,0,0,1,99,16.43a4.35,4.35,0,0,1-1.46-1,4.53,4.53,0,0,1-1-1.5,5.34,5.34,0,0,1,0-3.76,4.67,4.67,0,0,1,1-1.53,4.59,4.59,0,0,1,1.48-1,4.63,4.63,0,0,1,1.9-.38,5,5,0,0,1,1.23.14,4.51,4.51,0,0,1,1,.39,3.44,3.44,0,0,1,.81.58l.28.29a.86.86,0,0,1,.13.23.5.5,0,0,1,0,.27.72.72,0,0,1-.24.39,6.8,6.8,0,0,1-.83.59h0a3.71,3.71,0,0,0-1-1A2.57,2.57,0,0,0,101,8.78,2.63,2.63,0,0,0,99.77,9a2.81,2.81,0,0,0-.9.7,3.08,3.08,0,0,0-.57,1,3.88,3.88,0,0,0-.2,1.24,3.7,3.7,0,0,0,.2,1.22,3,3,0,0,0,.56,1,2.68,2.68,0,0,0,.87.66,2.61,2.61,0,0,0,1.14.24,3.21,3.21,0,0,0,1-.14,2.64,2.64,0,0,0,1.19-.76l.36-.39a7.87,7.87,0,0,1,.74.58l.17.17a.48.48,0,0,1,.1.17.44.44,0,0,1,0,.22.94.94,0,0,1-.1.23,1.17,1.17,0,0,1-.15.2A4.74,4.74,0,0,1,103.24,16.15Zm-7.86-6.3-.36,0a2.45,2.45,0,0,0-.72.1,2.65,2.65,0,0,0-.56.24,2.21,2.21,0,0,0-.42.31,3.25,3.25,0,0,0-.29.31,1.4,1.4,0,0,0,0-.22.7.7,0,0,0-.37-.47A1.46,1.46,0,0,0,92,9.94h-.24l-.17,0-.15,0v6.57h1.66V13a1.57,1.57,0,0,1,.49-1.17,1.54,1.54,0,0,1,.53-.32,1.88,1.88,0,0,1,.65-.11,2.68,2.68,0,0,1,.42,0,1.53,1.53,0,0,1,.34.1c.06-.12.24-.66.3-.83a1.31,1.31,0,0,0,.06-.47.34.34,0,0,0-.08-.2.43.43,0,0,0-.17-.12A.88.88,0,0,0,95.38,9.85Zm-17,4.9a2.13,2.13,0,0,0,1.49.59,1.77,1.77,0,0,0,.8-.18,1.88,1.88,0,0,0,.6-.46,2,2,0,0,0,.37-.65,2.31,2.31,0,0,0,.13-.76,3.25,3.25,0,0,0-.09-.79,1.79,1.79,0,0,0-.3-.64,1.46,1.46,0,0,0-.53-.44,1.79,1.79,0,0,0-.8-.16,1.47,1.47,0,0,0-.69.16,1.77,1.77,0,0,0-.53.42,1.94,1.94,0,0,0-.34.56,1.59,1.59,0,0,0-.12.58ZM76.75,10l.15,0,.17,0h.24a1.46,1.46,0,0,1,.69.15.7.7,0,0,1,.37.47,1,1,0,0,1,0,.15,3.18,3.18,0,0,1,.33-.3,2.31,2.31,0,0,1,.45-.28,3.11,3.11,0,0,1,.59-.21,3,3,0,0,1,.74-.08,2.68,2.68,0,0,1,2.24,1.08,3.44,3.44,0,0,1,.55,1.1,4.51,4.51,0,0,1,.18,1.28,3.49,3.49,0,0,1-.23,1.32,3.68,3.68,0,0,1-.56,1,3.14,3.14,0,0,1-1.23.94,3.67,3.67,0,0,1-1.37.27,3.08,3.08,0,0,1-1.68-.54v2.29l-.23,0h-.38a1.79,1.79,0,0,1-.39,0,.82.82,0,0,1-.33-.16.78.78,0,0,1-.23-.31,1.25,1.25,0,0,1-.08-.5Zm36.06,0V8.62a.83.83,0,0,1,.1-.43.74.74,0,0,1,.26-.26,1,1,0,0,1,.35-.13,2.43,2.43,0,0,1,.39,0h.2l.18,0,.18,0V10h1.85l-1,1.35h-.89v2.89a1.63,1.63,0,0,0,.19.87.74.74,0,0,0,.7.3,1,1,0,0,0,.34-.06l.29-.13.22-.15.13-.12a4.52,4.52,0,0,1,.29.51.93.93,0,0,1,.1.4.54.54,0,0,1-.13.34,1.33,1.33,0,0,1-.38.31,2.3,2.3,0,0,1-.59.23,2.82,2.82,0,0,1-.75.09,2.46,2.46,0,0,1-.91-.17,1.69,1.69,0,0,1-.68-.5,2,2,0,0,1-.37-.78,4.2,4.2,0,0,1-.11-1v-3h-1.13V10ZM74.23,14.22a.92.92,0,0,1-.13.48,1.45,1.45,0,0,1-.34.39,1.71,1.71,0,0,1-1.06.37,1.42,1.42,0,0,1-.89-.24.8.8,0,0,1-.3-.66,1,1,0,0,1,.32-.72,1.59,1.59,0,0,1,1.13-.32h.37l.42,0,.49,0ZM71,10.12a1.76,1.76,0,0,0-.47.3.41.41,0,0,0-.16.32,1,1,0,0,0,.12.34,2.47,2.47,0,0,0,.48.6,5,5,0,0,1,.75-.39,2.88,2.88,0,0,1,1.13-.18,1.73,1.73,0,0,1,1,.28.9.9,0,0,1,.39.77v.15l-.52,0-.46,0H72.8a4.25,4.25,0,0,0-1.18.15,2.62,2.62,0,0,0-.91.46,2.09,2.09,0,0,0-.59.75,2.31,2.31,0,0,0-.21,1,2.11,2.11,0,0,0,.2,1,1.94,1.94,0,0,0,.53.67,2.28,2.28,0,0,0,.73.39,2.67,2.67,0,0,0,.81.13,2.89,2.89,0,0,0,1.22-.25,2.28,2.28,0,0,0,.82-.58,1.12,1.12,0,0,0,.08.46q.08.16.36.16h1.15V12.12a2.35,2.35,0,0,0-.2-1,2.15,2.15,0,0,0-.56-.76,2.63,2.63,0,0,0-.88-.49A3.53,3.53,0,0,0,73,9.73a6.09,6.09,0,0,0-1,.08l-.34.07A4,4,0,0,0,71,10.12Zm-1.28-.45a2.86,2.86,0,0,0-.56-1.06A3.23,3.23,0,0,0,68,7.79a4.14,4.14,0,0,0-1.8-.34H64.5a2.43,2.43,0,0,0-.39,0,1,1,0,0,0-.35.13.74.74,0,0,0-.26.26.83.83,0,0,0-.1.43v8.26h1.7V14h1.22a4.3,4.3,0,0,0,1.24-.19,3.33,3.33,0,0,0,1.13-.59,3,3,0,0,0,.82-1,3.34,3.34,0,0,0,.31-1.51A3.9,3.9,0,0,0,69.67,9.68ZM67.5,12a1.81,1.81,0,0,1-1.33.49H65.11V8.93h1.06A1.77,1.77,0,0,1,68,10.78,1.7,1.7,0,0,1,67.5,12Zm50,3.86h-.23V15.8h.58v.11h-.23v.65h-.12Zm1,.16-.15.4h-.15L118,16v.52h-.12V15.8h.14l.21.58.22-.58h.13v.76h-.12ZM89.58,14.59a6.61,6.61,0,0,1,.54.57l.12.17a.4.4,0,0,1,.06.16.37.37,0,0,1,0,.19.79.79,0,0,1-.11.18A1,1,0,0,1,90,16a3.5,3.5,0,0,1-1.26.62,4.61,4.61,0,0,1-1.33.17A3.73,3.73,0,0,1,86,16.52a3.15,3.15,0,0,1-1.81-1.87A4.17,4.17,0,0,1,84,13.18a3.68,3.68,0,0,1,.25-1.36,3.32,3.32,0,0,1,.69-1.09A3.23,3.23,0,0,1,86,10a3.36,3.36,0,0,1,1.36-.27,3.24,3.24,0,0,1,1.53.33,2.84,2.84,0,0,1,1,.87,3.56,3.56,0,0,1,.55,1.21,5.67,5.67,0,0,1,.17,1.38v.24H85.64a1.35,1.35,0,0,0,.16.66,1.69,1.69,0,0,0,.42.51,1.9,1.9,0,0,0,.59.32,2,2,0,0,0,.65.11,3.34,3.34,0,0,0,1.45-.3,2,2,0,0,0,.42-.25Zm-.72-2a1.39,1.39,0,0,0-.1-.51,1.43,1.43,0,0,0-.29-.46,1.5,1.5,0,0,0-.49-.34,1.62,1.62,0,0,0-.68-.13,1.85,1.85,0,0,0-.72.13,1.71,1.71,0,0,0-.53.34,1.46,1.46,0,0,0-.32.46,1.24,1.24,0,0,0-.11.51ZM0,7.45H2.8a4.88,4.88,0,0,1,1.5.2,2.5,2.5,0,0,1,1,.55A2.08,2.08,0,0,1,5.8,9a3.37,3.37,0,0,1,0,2.08,2.07,2.07,0,0,1-.53.83,2.49,2.49,0,0,1-1,.55,4.87,4.87,0,0,1-1.5.2H.66v3.87H0Zm3,4.63a2.46,2.46,0,0,0,1.71-.51,1.93,1.93,0,0,0,.56-1.5,1.93,1.93,0,0,0-.56-1.5A2.46,2.46,0,0,0,3,8.06H.66v4Zm6.34,4.64a3.07,3.07,0,0,1-1.26-.26,3.33,3.33,0,0,1,0-6.09,3.17,3.17,0,0,1,2.51,0,3.31,3.31,0,0,1,1.73,1.76,3.39,3.39,0,0,1,0,2.57,3.31,3.31,0,0,1-1.73,1.76A3.08,3.08,0,0,1,9.33,16.72Zm0-.56a2.43,2.43,0,0,0,1-.22,2.62,2.62,0,0,0,.83-.59,2.7,2.7,0,0,0,.55-.87,2.88,2.88,0,0,0,.2-1.07,2.72,2.72,0,0,0-.2-1,3,3,0,0,0-.55-.88,2.53,2.53,0,0,0-.83-.6,2.49,2.49,0,0,0-2,0,2.65,2.65,0,0,0-.82.59,2.7,2.7,0,0,0-.55.87,2.87,2.87,0,0,0-.2,1.07,2.7,2.7,0,0,0,.2,1.05,3,3,0,0,0,.55.87,2.52,2.52,0,0,0,.83.6A2.4,2.4,0,0,0,9.33,16.16Zm3.37-5.89h.68l1.75,5.48,1.8-5.48h.59l1.76,5.57,1.67-5.57h.63l-2,6.28H18.9L17.16,11.2,15.4,16.56h-.59Zm14.86,5.34a2.71,2.71,0,0,1-1.11.81,3.71,3.71,0,0,1-1.44.29,3.43,3.43,0,0,1-1.29-.24,2.9,2.9,0,0,1-1-.68,3.12,3.12,0,0,1-.66-1,3.84,3.84,0,0,1,0-2.63,3.36,3.36,0,0,1,.62-1.05,2.85,2.85,0,0,1,1-.71,2.89,2.89,0,0,1,1.23-.26,3.13,3.13,0,0,1,1.2.23A2.64,2.64,0,0,1,27,11a3.07,3.07,0,0,1,.63,1.09,4.56,4.56,0,0,1,.23,1.5H22.48a2.84,2.84,0,0,0,.2,1,2.62,2.62,0,0,0,.52.82,2.34,2.34,0,0,0,.79.55,2.53,2.53,0,0,0,1,.2,3.09,3.09,0,0,0,1.19-.25,3.07,3.07,0,0,0,.53-.29,1.86,1.86,0,0,0,.4-.37ZM27.16,13a2.79,2.79,0,0,0-.74-1.76,2.19,2.19,0,0,0-1.6-.6,2.25,2.25,0,0,0-.92.18,2.18,2.18,0,0,0-.72.51,2.57,2.57,0,0,0-.48.75,2.7,2.7,0,0,0-.21.92Zm1.69-1.45v-.77c0-.1,0-.19,0-.27s0-.18,0-.28h.57q0,.15,0,.29v.29q0,.16,0,.35v.45a3.92,3.92,0,0,1,.29-.46,2.31,2.31,0,0,1,.47-.47,2.77,2.77,0,0,1,.67-.37,2.42,2.42,0,0,1,.89-.15,1.29,1.29,0,0,1,.52.1l-.18.59a.78.78,0,0,0-.23-.05h-.24a1.81,1.81,0,0,0-.89.22,2.29,2.29,0,0,0-.68.57,2.64,2.64,0,0,0-.44.81,2.82,2.82,0,0,0-.16.92v3.21h-.61Zm9.21,4a2.72,2.72,0,0,1-1.11.81,3.71,3.71,0,0,1-1.44.29,3.43,3.43,0,0,1-1.29-.24,2.9,2.9,0,0,1-1-.68,3.12,3.12,0,0,1-.66-1,3.84,3.84,0,0,1,0-2.63,3.36,3.36,0,0,1,.62-1.05,2.85,2.85,0,0,1,1-.71,2.89,2.89,0,0,1,1.23-.26,3.14,3.14,0,0,1,1.2.23,2.64,2.64,0,0,1,1,.66,3.06,3.06,0,0,1,.63,1.09,4.56,4.56,0,0,1,.23,1.5H33a2.83,2.83,0,0,0,.2,1,2.62,2.62,0,0,0,.52.82,2.34,2.34,0,0,0,.79.55,2.53,2.53,0,0,0,1,.2,3.09,3.09,0,0,0,1.19-.25,3.07,3.07,0,0,0,.53-.29,1.86,1.86,0,0,0,.4-.37ZM37.67,13a2.79,2.79,0,0,0-.74-1.76,2.19,2.19,0,0,0-1.6-.6,2.25,2.25,0,0,0-.92.18,2.18,2.18,0,0,0-.72.51,2.57,2.57,0,0,0-.48.75A2.7,2.7,0,0,0,33,13Zm6.59,3.51q0-.18,0-.36c0-.1,0-.22,0-.35v-.39a2.23,2.23,0,0,1-.55.63,3.32,3.32,0,0,1-.72.43,2.54,2.54,0,0,1-1.05.2,2.91,2.91,0,0,1-1.26-.25,2.45,2.45,0,0,1-.88-.69,2.94,2.94,0,0,1-.52-1,4.6,4.6,0,0,1-.17-1.28,3.83,3.83,0,0,1,.24-1.39A3,3,0,0,1,40,11a3,3,0,0,1,1-.68,3.46,3.46,0,0,1,1.3-.24,2.65,2.65,0,0,1,.73.1,6.34,6.34,0,0,1,.61.2,5.8,5.8,0,0,1,.57.3V7.45h.6v8.31q0,.24,0,.42c0,.15,0,.27,0,.38Zm0-5.18a2.38,2.38,0,0,0-.48-.34,2.73,2.73,0,0,0-.6-.25,3,3,0,0,0-.85-.11,2.91,2.91,0,0,0-.95.16,2.25,2.25,0,0,0-.82.5,2.47,2.47,0,0,0-.58.87,3.34,3.34,0,0,0-.22,1.27,4.05,4.05,0,0,0,.12,1,2.49,2.49,0,0,0,.39.85,1.92,1.92,0,0,0,.69.59,2.24,2.24,0,0,0,1,.22,2.2,2.2,0,0,0,1-.21,2.31,2.31,0,0,0,.7-.53,2.21,2.21,0,0,0,.42-.66,1.73,1.73,0,0,0,.14-.62Zm4.38-3.93h.61v3.95a3.69,3.69,0,0,1,.31-.43,2.26,2.26,0,0,1,.46-.42,2.46,2.46,0,0,1,.65-.31,3.28,3.28,0,0,1,2.15.13,2.42,2.42,0,0,1,.88.7,3,3,0,0,1,.52,1.05,4.86,4.86,0,0,1,.17,1.32,3.51,3.51,0,0,1-.27,1.41,2.88,2.88,0,0,1-.74,1,3.24,3.24,0,0,1-1.11.64,4.2,4.2,0,0,1-1.37.22,6.88,6.88,0,0,1-1.29-.12,4.56,4.56,0,0,1-1-.28Zm.6,8.45.57.15a5.06,5.06,0,0,0,1.11.1A3.5,3.5,0,0,0,52,16a2.53,2.53,0,0,0,.89-.51,2.31,2.31,0,0,0,.59-.85,3.12,3.12,0,0,0,.21-1.2,4.35,4.35,0,0,0-.12-1,2.48,2.48,0,0,0-.39-.87,1.93,1.93,0,0,0-.69-.59,2.25,2.25,0,0,0-1-.22,2,2,0,0,0-1,.25,2.35,2.35,0,0,0-.7.61,2.59,2.59,0,0,0-.42.81,2.86,2.86,0,0,0-.14.84Zm5.65,2.69a1.13,1.13,0,0,0,.33.22,1.17,1.17,0,0,0,.48.1.76.76,0,0,0,.64-.29,3.22,3.22,0,0,0,.43-.82l.52-1.32-2.8-6.2h.7l2.42,5.45,2.09-5.45h.67L57.25,18q-.08.21-.2.45a2.18,2.18,0,0,1-.31.46,1.63,1.63,0,0,1-.44.36,1.25,1.25,0,0,1-.61.14A1.54,1.54,0,0,1,54.54,19Z"/><path class="cls-1" d="M123.3,2.28V0H119a2,2,0,0,0-1.15.35,2.23,2.23,0,0,0-.67.71,2.37,2.37,0,0,0-.33,1.22V9.11h0l1.61-2.28h2.68a2.22,2.22,0,0,0,2.15-2.28Zm-2.15,2.28H119V2.28h2.15V4.55Z"/><polygon class="cls-1" points="116.86 6.83 116.86 9.11 116.86 9.11 118.47 6.83 116.86 6.83"/><polygon class="cls-1" points="118.47 6.83 119 6.83 118.84 6.31 118.47 6.83"/><polygon class="cls-1" points="123.3 2.28 123.3 0 123.3 0 122.01 1.82 123.3 2.28"/><polygon class="cls-1" points="119 3.04 118.03 3.73 118.84 6.31 120.08 4.55 119 4.55 119 3.04"/><polygon class="cls-1" points="122.01 1.82 123.3 0 123.3 0 121.15 1.52 122.01 1.82"/><polygon class="cls-1" points="120.08 2.28 121.15 2.28 121.15 3.04 122.01 1.82 121.15 1.52 120.08 2.28"/><path class="cls-1" d="M123.3,0H119a2,2,0,0,0-1.15.35l3.3,1.17Z"/><polygon class="cls-1" points="118.03 3.73 116.86 4.55 116.86 6.83 118.47 6.83 118.84 6.31 118.03 3.73"/><path class="cls-1" d="M117.19,1.06a2.37,2.37,0,0,0-.33,1.22V4.55L118,3.73Z"/><path class="cls-1" d="M119,3V2.28h1.07l1.07-.76L117.85.35a2.23,2.23,0,0,0-.67.71L118,3.73Z"/></g></g></svg>